<svg width="49" height="49" viewBox="0 0 49 49" fill="none" xmlns="http://www.w3.org/2000/svg">
<path d="M24.25 0.5C37.5048 0.5 48.25 11.2452 48.25 24.5C48.25 37.7548 37.5048 48.5 24.25 48.5C10.9952 48.5 0.25 37.7548 0.25 24.5C0.25 11.2452 10.9952 0.5 24.25 0.5Z" fill="#D92020" fill-opacity="0.08"/>
<path d="M24.25 0.5C37.5048 0.5 48.25 11.2452 48.25 24.5C48.25 37.7548 37.5048 48.5 24.25 48.5C10.9952 48.5 0.25 37.7548 0.25 24.5C0.25 11.2452 10.9952 0.5 24.25 0.5Z" stroke="#E5E7EB"/>
<path d="M36.75 38.5H11.75V10.5H36.75V38.5Z" stroke="#E5E7EB"/>
<g clip-path="url(#clip0_841_204)">
<path d="M20.5 24C21.8261 24 23.0979 23.4732 24.0355 22.5355C24.9732 21.5979 25.5 20.3261 25.5 19C25.5 17.6739 24.9732 16.4021 24.0355 15.4645C23.0979 14.5268 21.8261 14 20.5 14C19.1739 14 17.9021 14.5268 16.9645 15.4645C16.0268 16.4021 15.5 17.6739 15.5 19C15.5 20.3261 16.0268 21.5979 16.9645 22.5355C17.9021 23.4732 19.1739 24 20.5 24ZM18.7148 25.875C14.8672 25.875 11.75 28.9922 11.75 32.8398C11.75 33.4805 12.2695 34 12.9102 34H28.0898C28.1602 34 28.2266 33.9922 28.2969 33.9805C25.3164 31.8281 24.3984 28.4727 24.2695 26.1602C23.6406 25.9727 22.9766 25.875 22.2891 25.875H18.7148ZM30.7773 22.8164L26.0898 24.6914C25.7344 24.8359 25.5 25.1797 25.5 25.5625C25.5 28.0352 26.5117 32.1563 30.7656 33.9297C30.9961 34.0273 31.2578 34.0273 31.4883 33.9297C35.7383 32.1563 36.75 28.0352 36.75 25.5625C36.75 25.1797 36.5156 24.8359 36.1602 24.6914L31.4727 22.8164C31.25 22.7266 31 22.7266 30.7773 22.8164ZM34.8516 26.1875C34.6992 28.168 33.7891 30.7461 31.125 32.0352V24.6953L34.8516 26.1875Z" fill="#D92020"/>
</g>
<defs>
<clipPath id="clip0_841_204">
<path d="M11.75 14H36.75V34H11.75V14Z" fill="white"/>
</clipPath>
</defs>
</svg>
