<svg width="49" height="49" viewBox="0 0 49 49" fill="none" xmlns="http://www.w3.org/2000/svg">
<path d="M24.75 0.5C38.0048 0.5 48.75 11.2452 48.75 24.5C48.75 37.7548 38.0048 48.5 24.75 48.5C11.4952 48.5 0.75 37.7548 0.75 24.5C0.75 11.2452 11.4952 0.5 24.75 0.5Z" fill="#D92020" fill-opacity="0.08"/>
<path d="M24.75 0.5C38.0048 0.5 48.75 11.2452 48.75 24.5C48.75 37.7548 38.0048 48.5 24.75 48.5C11.4952 48.5 0.75 37.7548 0.75 24.5C0.75 11.2452 11.4952 0.5 24.75 0.5Z" stroke="#E5E7EB"/>
<path d="M37.25 38.5H12.25V10.5H37.25V38.5Z" stroke="#E5E7EB"/>
<g clip-path="url(#clip0_841_206)">
<path d="M24.8828 17.3281L21.1016 20.3906C20.4727 20.8984 20.3516 21.8125 20.8281 22.4648C21.332 23.1602 22.3125 23.2969 22.9883 22.7695L26.8672 19.7539C27.1406 19.543 27.5313 19.5898 27.7461 19.8633C27.9609 20.1367 27.9102 20.5273 27.6367 20.7422L26.8203 21.375L32.25 26.375V19H32.2227L32.0703 18.9023L29.2344 17.0859C28.6367 16.7031 27.9375 16.5 27.2266 16.5C26.375 16.5 25.5469 16.793 24.8828 17.3281ZM25.7734 22.1875L23.7539 23.7578C22.5234 24.7188 20.7383 24.4688 19.8164 23.2031C18.9492 22.0117 19.168 20.3477 20.3125 19.4219L23.5625 16.793C23.1094 16.6016 22.6211 16.5039 22.125 16.5039C21.3906 16.5 20.6758 16.7188 20.0625 17.125L17.25 19V27.75H18.3516L21.9219 31.0078C22.6875 31.707 23.8711 31.6523 24.5703 30.8867C24.7852 30.6484 24.9297 30.3711 25.0039 30.082L25.668 30.6914C26.4297 31.3906 27.6172 31.3398 28.3164 30.5781C28.4922 30.3867 28.6211 30.1641 28.7031 29.9336C29.4609 30.4414 30.4922 30.3359 31.1289 29.6406C31.8281 28.8789 31.7773 27.6914 31.0156 26.9922L25.7734 22.1875ZM12.875 19C12.5312 19 12.25 19.2812 12.25 19.625V27.75C12.25 28.4414 12.8086 29 13.5 29H14.75C15.4414 29 16 28.4414 16 27.75V19H12.875ZM14.125 26.5C14.2908 26.5 14.4497 26.5658 14.5669 26.6831C14.6842 26.8003 14.75 26.9592 14.75 27.125C14.75 27.2908 14.6842 27.4497 14.5669 27.5669C14.4497 27.6842 14.2908 27.75 14.125 27.75C13.9592 27.75 13.8003 27.6842 13.6831 27.5669C13.5658 27.4497 13.5 27.2908 13.5 27.125C13.5 26.9592 13.5658 26.8003 13.6831 26.6831C13.8003 26.5658 13.9592 26.5 14.125 26.5ZM33.5 19V27.75C33.5 28.4414 34.0586 29 34.75 29H36C36.6914 29 37.25 28.4414 37.25 27.75V19.625C37.25 19.2812 36.9688 19 36.625 19H33.5ZM34.75 27.125C34.75 26.9592 34.8158 26.8003 34.9331 26.6831C35.0503 26.5658 35.2092 26.5 35.375 26.5C35.5408 26.5 35.6997 26.5658 35.8169 26.6831C35.9342 26.8003 36 26.9592 36 27.125C36 27.2908 35.9342 27.4497 35.8169 27.5669C35.6997 27.6842 35.5408 27.75 35.375 27.75C35.2092 27.75 35.0503 27.6842 34.9331 27.5669C34.8158 27.4497 34.75 27.2908 34.75 27.125Z" fill="#D92020"/>
</g>
<defs>
<clipPath id="clip0_841_206">
<path d="M12.25 14H37.25V34H12.25V14Z" fill="white"/>
</clipPath>
</defs>
</svg>
