<svg width="49" height="49" viewBox="0 0 49 49" fill="none" xmlns="http://www.w3.org/2000/svg">
<path d="M24.25 0.5C37.5048 0.5 48.25 11.2452 48.25 24.5C48.25 37.7548 37.5048 48.5 24.25 48.5C10.9952 48.5 0.25 37.7548 0.25 24.5C0.25 11.2452 10.9952 0.5 24.25 0.5Z" fill="#D92020" fill-opacity="0.08"/>
<path d="M24.25 0.5C37.5048 0.5 48.25 11.2452 48.25 24.5C48.25 37.7548 37.5048 48.5 24.25 48.5C10.9952 48.5 0.25 37.7548 0.25 24.5C0.25 11.2452 10.9952 0.5 24.25 0.5Z" stroke="#E5E7EB"/>
<path d="M34.25 38.5H14.25V10.5H34.25V38.5Z" stroke="#E5E7EB"/>
<g clip-path="url(#clip0_841_200)">
<path d="M16.75 16.5C16.75 15.8086 16.1914 15.25 15.5 15.25C14.8086 15.25 14.25 15.8086 14.25 16.5V29.625C14.25 31.3516 15.6484 32.75 17.375 32.75H33C33.6914 32.75 34.25 32.1914 34.25 31.5C34.25 30.8086 33.6914 30.25 33 30.25H17.375C17.0312 30.25 16.75 29.9688 16.75 29.625V16.5ZM32.6328 19.8828C33.1211 19.3945 33.1211 18.6016 32.6328 18.1133C32.1445 17.625 31.3516 17.625 30.8633 18.1133L26.75 22.2305L24.5078 19.9883C24.0195 19.5 23.2266 19.5 22.7383 19.9883L18.3633 24.3633C17.875 24.8516 17.875 25.6445 18.3633 26.1328C18.8516 26.6211 19.6445 26.6211 20.1328 26.1328L23.625 22.6445L25.8672 24.8867C26.3555 25.375 27.1484 25.375 27.6367 24.8867L32.6367 19.8867L32.6328 19.8828Z" fill="#D92020"/>
</g>
<defs>
<clipPath id="clip0_841_200">
<path d="M14.25 14H34.25V34H14.25V14Z" fill="white"/>
</clipPath>
</defs>
</svg>
