<svg width="49" height="49" viewBox="0 0 49 49" fill="none" xmlns="http://www.w3.org/2000/svg">
<path d="M24.75 0.5C38.0048 0.5 48.75 11.2452 48.75 24.5C48.75 37.7548 38.0048 48.5 24.75 48.5C11.4952 48.5 0.75 37.7548 0.75 24.5C0.75 11.2452 11.4952 0.5 24.75 0.5Z" fill="#D92020" fill-opacity="0.08"/>
<path d="M24.75 0.5C38.0048 0.5 48.75 11.2452 48.75 24.5C48.75 37.7548 38.0048 48.5 24.75 48.5C11.4952 48.5 0.75 37.7548 0.75 24.5C0.75 11.2452 11.4952 0.5 24.75 0.5Z" stroke="#E5E7EB"/>
<path d="M32.25 38.5H17.25V10.5H32.25V38.5Z" stroke="#E5E7EB"/>
<g clip-path="url(#clip0_841_202)">
<path d="M24.75 14C23.1172 14 21.7266 15.043 21.2148 16.5H19.75C18.3711 16.5 17.25 17.6211 17.25 19V31.5C17.25 32.8789 18.3711 34 19.75 34H29.75C31.1289 34 32.25 32.8789 32.25 31.5V19C32.25 17.6211 31.1289 16.5 29.75 16.5H28.2852C27.7734 15.043 26.3828 14 24.75 14ZM24.75 16.5C25.0815 16.5 25.3995 16.6317 25.6339 16.8661C25.8683 17.1005 26 17.4185 26 17.75C26 18.0815 25.8683 18.3995 25.6339 18.6339C25.3995 18.8683 25.0815 19 24.75 19C24.4185 19 24.1005 18.8683 23.8661 18.6339C23.6317 18.3995 23.5 18.0815 23.5 17.75C23.5 17.4185 23.6317 17.1005 23.8661 16.8661C24.1005 16.6317 24.4185 16.5 24.75 16.5ZM29.1641 24.6641L24.1641 29.6641C23.7969 30.0312 23.2031 30.0312 22.8398 29.6641L20.3359 27.1641C19.9688 26.7969 19.9688 26.2031 20.3359 25.8398C20.7031 25.4766 21.2969 25.4727 21.6602 25.8398L23.4961 27.6758L27.8359 23.3359C28.2031 22.9688 28.7969 22.9688 29.1602 23.3359C29.5234 23.7031 29.5273 24.2969 29.1602 24.6602L29.1641 24.6641Z" fill="#D92020"/>
</g>
<defs>
<clipPath id="clip0_841_202">
<path d="M17.25 14H32.25V34H17.25V14Z" fill="white"/>
</clipPath>
</defs>
</svg>
