<svg width="49" height="49" viewBox="0 0 49 49" fill="none" xmlns="http://www.w3.org/2000/svg">
<path d="M24.75 0.5C38.0048 0.5 48.75 11.2452 48.75 24.5C48.75 37.7548 38.0048 48.5 24.75 48.5C11.4952 48.5 0.75 37.7548 0.75 24.5C0.75 11.2452 11.4952 0.5 24.75 0.5Z" fill="#D92020" fill-opacity="0.08"/>
<path d="M24.75 0.5C38.0048 0.5 48.75 11.2452 48.75 24.5C48.75 37.7548 38.0048 48.5 24.75 48.5C11.4952 48.5 0.75 37.7548 0.75 24.5C0.75 11.2452 11.4952 0.5 24.75 0.5Z" stroke="#E5E7EB"/>
<path d="M34.75 38.5H14.75V10.5H34.75V38.5Z" stroke="#E5E7EB"/>
<g clip-path="url(#clip0_841_198)">
<path d="M21.6992 33.3008C20.9687 34.0313 19.7812 34.0313 19.0469 33.3008L15.4492 29.6992C14.7187 28.9687 14.7187 27.7812 15.4492 27.0469L17.4297 25.0664L19.3047 26.9414C19.5469 27.1836 19.9453 27.1836 20.1875 26.9414C20.4297 26.6992 20.4297 26.3008 20.1875 26.0586L18.3125 24.1836L19.9297 22.5664L21.8047 24.4414C22.0469 24.6836 22.4453 24.6836 22.6875 24.4414C22.9297 24.1992 22.9297 23.8008 22.6875 23.5586L20.8125 21.6836L22.4297 20.0664L24.3047 21.9414C24.5469 22.1836 24.9453 22.1836 25.1875 21.9414C25.4297 21.6992 25.4297 21.3008 25.1875 21.0586L23.3125 19.1836L24.9297 17.5664L26.8047 19.4414C27.0469 19.6836 27.4453 19.6836 27.6875 19.4414C27.9297 19.1992 27.9297 18.8008 27.6875 18.5586L25.8125 16.6836L27.793 14.7031C28.5234 13.9727 29.7109 13.9727 30.4453 14.7031L34.043 18.3008C34.7734 19.0313 34.7734 20.2187 34.043 20.9531L21.6992 33.3008Z" fill="#D92020"/>
</g>
<defs>
<clipPath id="clip0_841_198">
<path d="M14.75 14H34.75V34H14.75V14Z" fill="white"/>
</clipPath>
</defs>
</svg>
